<svg width="19" height="19" viewBox="0 0 19 19" fill="none" xmlns="http://www.w3.org/2000/svg">
<path d="M18.0325 9.39523C18.0325 4.52135 14.0813 0.570312 9.20735 0.570312C4.33336 0.570312 0.382072 4.52135 0.382072 9.39523C0.382072 14.2691 4.33336 18.2203 9.20735 18.2203C14.0791 18.2148 18.027 14.267 18.0325 9.39523ZM1.2647 9.39523C1.2647 5.00871 4.82073 1.45276 9.20735 1.45276C13.594 1.45276 17.15 5.00871 17.15 9.39523C17.15 13.7818 13.594 17.3377 9.20735 17.3377C4.82283 17.3327 1.26971 13.7797 1.2647 9.39523Z" fill="#6F6F6F"/>
<path d="M12.628 8.36183C12.7884 8.17826 12.7697 7.89952 12.5863 7.73906C12.4027 7.57876 12.1239 7.59751 11.9635 7.78091L9.20702 10.9313L6.45039 7.78075C6.28993 7.59719 6.01118 7.5786 5.82777 7.7389C5.6442 7.89936 5.62546 8.1781 5.78592 8.36167L8.87478 11.8916C8.95849 11.9874 9.07968 12.0424 9.20702 12.0424C9.33436 12.0424 9.45539 11.9874 9.53926 11.8916L12.628 8.36183Z" fill="#6F6F6F"/>
</svg>
