<svg width="28" height="28" viewBox="0 0 28 28" fill="none" xmlns="http://www.w3.org/2000/svg">
<path fill-rule="evenodd" clip-rule="evenodd" d="M13.0071 6.83086C13.0071 6.31605 13.4249 5.89822 13.9397 5.89822C14.4545 5.89822 14.8724 6.31605 14.8724 6.83086V20.5095C14.8724 21.0244 14.4545 21.4422 13.9397 21.4422C13.4249 21.4422 13.0071 21.0244 13.0071 20.5095V6.83086Z" fill="white"/>
<path fill-rule="evenodd" clip-rule="evenodd" d="M7.10042 14.6027C6.58561 14.6027 6.16779 14.1849 6.16779 13.67C6.16779 13.1552 6.58561 12.7374 7.10042 12.7374H20.7791C21.2939 12.7374 21.7117 13.1552 21.7117 13.67C21.7117 14.1849 21.2939 14.6027 20.7791 14.6027H7.10042Z" fill="white"/>
<path fill-rule="evenodd" clip-rule="evenodd" d="M27.3076 6.20898V21.1312C27.3076 22.698 26.6858 24.2002 25.5778 25.3081C24.4699 26.4161 22.9677 27.0379 21.4009 27.0379H6.47866C4.91183 27.0379 3.40966 26.4161 2.30169 25.3081C1.19372 24.2002 0.57196 22.698 0.57196 21.1312V6.20898C0.57196 4.64215 1.19372 3.13998 2.30169 2.03201C3.40966 0.924035 4.91183 0.302277 6.47866 0.302277H21.4009C22.9677 0.302277 24.4699 0.924035 25.5778 2.03201C26.6858 3.13998 27.3076 4.64215 27.3076 6.20898ZM25.4423 6.20898C25.4423 5.13707 25.017 4.10868 24.2585 3.35138C23.5012 2.59283 22.4728 2.16755 21.4009 2.16755H6.47866C5.40675 2.16755 4.37836 2.59283 3.62106 3.35138C2.86252 4.10868 2.43723 5.13707 2.43723 6.20898V21.1312C2.43723 22.2031 2.86252 23.2315 3.62106 23.9888C4.37836 24.7473 5.40675 25.1726 6.47866 25.1726H21.4009C22.4728 25.1726 23.5012 24.7473 24.2585 23.9888C25.017 23.2315 25.4423 22.2031 25.4423 21.1312V6.20898Z" fill="white"/>
</svg>
