<svg width="19" height="19" viewBox="0 0 19 19" fill="none" xmlns="http://www.w3.org/2000/svg">
<path d="M6.49251 6.91192C6.49251 6.56551 6.77441 6.28361 7.12082 6.28361C7.46722 6.28361 7.74912 6.56551 7.74912 6.91192C7.74912 7.25832 7.46722 7.54022 7.12082 7.54022C6.77441 7.54022 6.49251 7.25832 6.49251 6.91192ZM11.3095 10.4723C10.9631 10.4723 10.6812 10.7542 10.6812 11.1006C10.6812 11.447 10.9631 11.7289 11.3095 11.7289C11.6559 11.7289 11.9378 11.447 11.9378 11.1006C11.9378 10.7542 11.6559 10.4723 11.3095 10.4723ZM16.976 10.7777C16.944 10.9191 17.127 11.2877 17.2481 11.5317C17.4816 12.002 17.7463 12.5351 17.5191 13.0057C17.2887 13.483 16.701 13.6088 16.1823 13.7196C15.9198 13.776 15.5234 13.8608 15.4377 13.9678C15.3508 14.0769 15.3558 14.4843 15.3592 14.7538C15.3659 15.282 15.3732 15.881 14.9615 16.21C14.5512 16.5376 13.9702 16.3979 13.4579 16.275C13.1942 16.2117 12.7967 16.1156 12.6688 16.1778C12.5477 16.236 12.3779 16.601 12.2654 16.8425C12.0407 17.3257 11.786 17.8729 11.2653 17.9913C11.1998 18.0062 11.1353 18.0131 11.0718 18.0131C10.6469 18.0131 10.2672 17.7025 9.89836 17.4009C9.673 17.2164 9.36408 16.9638 9.21497 16.9638C9.06606 16.9638 8.75714 17.2164 8.53179 17.4009C8.12778 17.7312 7.66954 18.1067 7.16501 17.9911C6.64435 17.8727 6.38947 17.3253 6.16453 16.8425C6.05228 16.601 5.88221 16.236 5.76137 16.1776C5.6332 16.1149 5.23527 16.2115 4.97201 16.2747C4.45952 16.3981 3.87896 16.5372 3.46847 16.2098C3.05651 15.8808 3.06384 15.2816 3.07075 14.7532C3.0741 14.4837 3.07913 14.0765 2.99242 13.9676C2.90676 13.8604 2.5103 13.7755 2.24787 13.7194C1.72889 13.6084 1.14122 13.4825 0.910836 13.005C0.683808 12.5348 0.948744 12.0016 1.18206 11.5312C1.30332 11.2874 1.48637 10.9186 1.45432 10.7773C1.42542 10.6506 1.11001 10.4057 0.901412 10.2436C0.47898 9.91606 0 9.54411 0 9.00627C0 8.46844 0.47898 8.09669 0.901621 7.76872C1.11022 7.60682 1.42563 7.36199 1.45453 7.23508C1.48658 7.09371 1.30353 6.72489 1.18247 6.4809C0.948954 6.01051 0.684227 5.47749 0.911465 5.00689C1.14184 4.52958 1.72952 4.40371 2.24829 4.29271C2.51072 4.23658 2.90718 4.15176 2.99263 4.04474C3.07975 3.93562 3.07473 3.52827 3.07138 3.25873C3.06467 2.73032 3.05734 2.13133 3.46909 1.80231C3.87938 1.47475 4.46035 1.61424 4.97263 1.73739C5.23631 1.80064 5.63382 1.89635 5.76179 1.83477C5.88284 1.77634 6.05269 1.4115 6.16516 1.16982C6.38989 0.686856 6.64456 0.1396 7.16522 0.021269C7.66912 -0.093083 8.1282 0.280969 8.532 0.611459C8.75756 0.795972 9.06648 1.04855 9.21538 1.04855C9.36429 1.04855 9.67321 0.795972 9.89856 0.611669C10.3028 0.280969 10.7608 -0.0939207 11.2656 0.021269C11.786 0.1396 12.0409 0.687065 12.2658 1.17002C12.3783 1.4115 12.5481 1.77655 12.6692 1.83498C12.7976 1.89677 13.1949 1.80085 13.4581 1.7376C13.9706 1.61445 14.5514 1.47496 14.9619 1.80252C15.3738 2.13154 15.3665 2.73053 15.3596 3.25915C15.3563 3.52869 15.3512 3.93604 15.4379 4.04474C15.5236 4.15176 15.9201 4.23679 16.1825 4.29292C16.7015 4.40392 17.2891 4.52958 17.5195 5.0071C17.7465 5.47749 17.4816 6.01071 17.2483 6.48111C17.127 6.7251 16.944 7.09371 16.976 7.23508C17.0049 7.36199 17.3203 7.60682 17.5289 7.76872C17.9514 8.09669 18.4304 8.46844 18.4304 9.00627C18.4304 9.54411 17.9514 9.91585 17.5287 10.2438C17.3201 10.4059 17.0047 10.6506 16.976 10.7777ZM7.12082 8.37797C7.92903 8.37797 8.58687 7.72034 8.58687 6.91192C8.58687 6.10349 7.92903 5.44587 7.12082 5.44587C6.3126 5.44587 5.65477 6.10349 5.65477 6.91192C5.65477 7.72034 6.3126 8.37797 7.12082 8.37797ZM12.4434 6.37032C12.607 6.20675 12.607 5.9416 12.4434 5.77803C12.2798 5.61446 12.0147 5.61446 11.8511 5.77803L5.98693 11.6422C5.82336 11.8058 5.82336 12.0709 5.98693 12.2345C6.06882 12.3164 6.17584 12.3572 6.28307 12.3572C6.39031 12.3572 6.49733 12.3164 6.57922 12.2345L12.4434 6.37032ZM12.7756 11.1006C12.7756 10.2924 12.1177 9.63458 11.3095 9.63458C10.5013 9.63458 9.84348 10.2924 9.84348 11.1006C9.84348 11.9088 10.5013 12.5667 11.3095 12.5667C12.1177 12.5667 12.7756 11.9088 12.7756 11.1006Z" fill="#16447C"/>
</svg>
