<svg width="22" height="22" viewBox="0 0 22 22" fill="none" xmlns="http://www.w3.org/2000/svg">
<path fill-rule="evenodd" clip-rule="evenodd" d="M6.92362 1.77246H14.3523C17.0903 1.77246 18.6149 3.35021 18.6149 6.05365V15.2099C18.6149 17.9577 17.0903 19.5 14.3523 19.5H6.92362C4.22904 19.5 2.66016 17.9577 2.66016 15.2099V6.05365C2.66016 3.35021 4.22904 1.77246 6.92362 1.77246ZM7.1624 5.90292V5.89406H9.81177C10.1938 5.89406 10.504 6.20429 10.504 6.58454C10.504 6.97544 10.1938 7.28567 9.81177 7.28567H7.1624C6.78037 7.28567 6.47103 6.97544 6.47103 6.59429C6.47103 6.21315 6.78037 5.90292 7.1624 5.90292ZM7.1624 11.292H14.1116C14.4927 11.292 14.803 10.9818 14.803 10.6006C14.803 10.2195 14.4927 9.90837 14.1116 9.90837H7.1624C6.78037 9.90837 6.47103 10.2195 6.47103 10.6006C6.47103 10.9818 6.78037 11.292 7.1624 11.292ZM7.16244 15.3429H14.1116C14.4653 15.3075 14.7321 15.0052 14.7321 14.6515C14.7321 14.2881 14.4653 13.9868 14.1116 13.9513H7.16244C6.89653 13.9247 6.63948 14.0488 6.49766 14.2793C6.35584 14.5009 6.35584 14.7934 6.49766 15.0238C6.63948 15.2454 6.89653 15.3784 7.16244 15.3429Z" fill="#16447C"/>
</svg>
