<svg width="20" height="20" viewBox="0 0 20 20" fill="none" xmlns="http://www.w3.org/2000/svg">
<g clip-path="url(#clip0_1_9629)">
<path d="M4.375 12.5V3.75L1.25 1.25V18.75H18.75V1.25L15.625 3.75V12.5H4.375Z" fill="#16447C"/>
<path d="M15.625 12.5H4.375V3.75H15.625V12.5Z" fill="#16447C"/>
<path d="M4.375 12.5H15.625L18.75 18.75H1.25L4.375 12.5Z" fill="#16447C"/>
<path d="M18.75 0.9375C18.5781 0.9375 18.4375 1.07812 18.4375 1.25V17.425L15.9375 12.425V3.75C15.9375 3.57812 15.7969 3.4375 15.625 3.4375C15.4531 3.4375 15.3125 3.57812 15.3125 3.75V12.1875H4.6875V3.75C4.6875 3.57812 4.54688 3.4375 4.375 3.4375C4.20312 3.4375 4.0625 3.57812 4.0625 3.75V12.425L1.5625 17.425V1.25C1.5625 1.07812 1.42188 0.9375 1.25 0.9375C1.07812 0.9375 0.9375 1.07812 0.9375 1.25V18.75C0.9375 18.9219 1.07812 19.0625 1.25 19.0625H18.75C18.9219 19.0625 19.0625 18.9219 19.0625 18.75V1.25C19.0625 1.07812 18.9219 0.9375 18.75 0.9375ZM14.6187 18.4375L14.2531 16.9781H17.5125L18.2406 18.4375H14.6156H14.6187ZM1.75625 18.4375L2.48437 16.9781H5.74375L5.37812 18.4375H1.75625ZM3.52812 14.8969H6.26875L5.90312 16.3563H2.79687L3.525 14.8969H3.52812ZM4.56875 12.8125H6.7875L6.42187 14.2719H3.8375L4.56562 12.8125H4.56875ZM9.6875 12.8125V14.2719H7.06563L7.43125 12.8125H9.6875ZM12.5688 12.8125L12.9344 14.2719H10.3125V12.8125H12.5688ZM15.4313 12.8125L16.1594 14.2719H13.575L13.2094 12.8125H15.4281H15.4313ZM17.2031 16.3531H14.1L13.7344 14.8937H16.475L17.2031 16.3531ZM10.3125 14.8937H13.0906L13.4563 16.3531H10.3156V14.8937H10.3125ZM9.6875 16.3531H6.54688L6.9125 14.8937H9.69063V16.3531H9.6875ZM6.39063 16.9781H9.6875V18.4375H6.025L6.39063 16.9781ZM10.3125 16.9781H13.6094L13.975 18.4375H10.3125V16.9781Z" fill="#C9C9C9"/>
</g>
<defs>
<clipPath id="clip0_1_9629">
<rect width="20" height="20" fill="white"/>
</clipPath>
</defs>
</svg>
