<svg width="23" height="20" viewBox="0 0 23 20" fill="none" xmlns="http://www.w3.org/2000/svg">
<path d="M21.4107 8.0735C20.6934 8.0735 20.0837 8.57559 19.9403 9.257H18.1471L15.1345 4.05675L16.3539 2.83738C17.394 3.44706 18.6851 2.72979 18.6851 1.54628C18.6851 1.15178 18.5057 0.757275 18.2188 0.470364C16.9277 -0.78487 14.9194 0.829002 15.8518 2.33528L14.5607 3.62638H8.39214L7.10104 2.33528C8.0335 0.793138 5.98926 -0.820734 4.73403 0.470364C3.44293 1.7256 5.0568 3.76984 6.59894 2.83738L7.81831 4.05675L4.80575 9.257H3.01256C2.83324 8.57559 2.25942 8.0735 1.54214 8.0735C0.681413 8.0735 0 8.79077 0 9.61564C0 10.4405 0.681413 11.1578 1.54214 11.1578C2.25942 11.1578 2.86911 10.6557 3.01256 9.97428H4.80575C4.80575 9.97428 5.66648 11.4447 7.81831 15.1745L6.59894 16.3939C5.55889 15.7842 4.2678 16.5374 4.2678 17.685C4.2678 18.0795 4.41125 18.474 4.73403 18.7609C5.9534 19.9803 8.06936 18.474 7.10104 16.896L8.39214 15.6049H14.5607L15.8518 16.896C14.8835 18.474 16.9636 20.0162 18.2188 18.7609C19.4741 17.5057 17.8961 15.4256 16.3539 16.358L15.1345 15.1387C15.1345 15.1387 15.1345 15.1387 15.1704 15.1028C15.3139 14.8159 15.9594 13.74 18.1112 10.0101H19.9044C20.0837 10.6916 20.6576 11.1936 21.3748 11.1936C22.2356 11.1936 22.917 10.5122 22.917 9.6515C22.917 8.79077 22.2714 8.0735 21.4107 8.0735ZM16.4256 11.5164C15.7442 10.584 14.0945 10.4405 12.9468 10.3329C12.7317 10.2971 12.5523 10.4764 12.5523 10.6916C12.4806 11.1219 12.6958 11.8751 11.5482 13.1662C10.8309 12.3772 10.544 11.6599 10.544 10.7274C10.544 10.5122 10.3646 10.3329 10.1495 10.3688C8.93009 10.5122 7.1369 10.6557 6.56308 11.6957L5.41544 9.61564L8.428 4.37952H14.489L17.5374 9.61564L16.4256 11.5164Z" fill="#16447C"/>
<path d="M13.7001 7.10495C13.7001 8.28846 12.7318 9.68715 11.5483 9.68715C10.3648 9.68715 9.39648 8.28846 9.39648 7.10495C9.39648 5.92145 10.3648 4.95312 11.5483 4.95312C12.7318 4.95312 13.7001 5.92145 13.7001 7.10495Z" fill="#16447C"/>
</svg>
