<svg width="22" height="22" viewBox="0 0 22 22" fill="none" xmlns="http://www.w3.org/2000/svg">
<path fill-rule="evenodd" clip-rule="evenodd" d="M8.76972 9.9537C8.38193 9.9537 8.07531 10.2551 8.07531 10.6362C8.07531 11.0085 8.38193 11.3187 8.76972 11.3187H14.1807V15.5556C14.1807 17.7272 12.3861 19.5 10.1676 19.5H5.77563C3.56614 19.5 1.77148 17.7361 1.77148 15.5645V5.71683C1.77148 3.53635 3.57515 1.77246 5.78465 1.77246H10.1856C12.3861 1.77246 14.1807 3.53635 14.1807 5.70796V9.9537H8.76972ZM17.399 7.56952L19.9872 10.1489C20.1202 10.2818 20.1911 10.4502 20.1911 10.6364C20.1911 10.8137 20.1202 10.9909 19.9872 11.115L17.399 13.6944C17.2661 13.8273 17.0888 13.8982 16.9204 13.8982C16.7431 13.8982 16.5658 13.8273 16.4329 13.6944C16.1669 13.4285 16.1669 12.9941 16.4329 12.7282L17.8511 11.3189H14.1815V9.95387H17.8511L16.4329 8.54453C16.1669 8.27862 16.1669 7.8443 16.4329 7.57839C16.6988 7.30361 17.1331 7.30361 17.399 7.56952Z" fill="#16447C"/>
</svg>
