<svg width="22" height="24" viewBox="0 0 22 24" fill="none" xmlns="http://www.w3.org/2000/svg">
<path d="M20.4837 9.96465L11.1235 0.60304C10.5714 0.0523602 9.67841 0.0588757 9.13359 0.602337C8.58568 1.15166 8.58568 2.04358 9.13359 2.5922L18.4952 11.9532C19.0436 12.5016 19.9352 12.5016 20.4837 11.9532C21.0336 11.4032 21.0336 10.5145 20.4837 9.96465Z" fill="#16447C"/>
<path d="M8.43531 3.88574L8.36486 4.23889C7.8686 6.72127 6.66253 9.07957 5.03125 10.991L10.124 16.0837C12.0352 14.4528 14.361 13.2143 16.8435 12.7174L17.1973 12.647L8.43531 3.88574Z" fill="#16447C"/>
<path d="M4.09866 12.0459L0.618092 15.5258C-0.204319 16.3482 -0.207741 17.6833 0.618092 18.5092L2.6066 20.4977C3.42901 21.3201 4.76418 21.3235 5.59001 20.4977L9.07025 17.0174L4.09866 12.0459ZM4.59581 17.515C4.32117 17.7896 3.87619 17.7896 3.60155 17.515C3.32692 17.2403 3.32692 16.7954 3.60155 16.5207L4.59581 15.5265C4.87044 15.2518 5.31542 15.2518 5.59006 15.5265C5.8647 15.8011 5.8647 16.2461 5.59006 16.5207L4.59581 17.515Z" fill="#16447C"/>
<path d="M12.0056 20.8718L12.962 19.9153C13.7879 19.0895 13.7852 17.7544 12.9621 16.9326L12.2516 16.2217C11.859 16.4854 11.484 16.772 11.1194 17.0778L11.9678 17.9275C12.2418 18.2001 12.2437 18.6437 11.9678 18.9211L10.9955 19.8933L9.56672 18.509L7.57812 20.4976L10.7683 23.5888C11.3127 24.1346 12.2065 24.1377 12.7561 23.5881C13.3047 23.0395 13.3047 22.1476 12.7561 21.5989L12.0056 20.8718Z" fill="#16447C"/>
<path d="M14.8476 0C14.459 0 14.1445 0.31448 14.1445 0.703116V2.10935C14.1445 2.49798 14.459 2.81246 14.8476 2.81246C15.2363 2.81246 15.5508 2.49798 15.5508 2.10935V0.703116C15.5508 0.31448 15.2363 0 14.8476 0Z" fill="#16447C"/>
<path d="M20.4726 5.62402H19.0664C18.6778 5.62402 18.3633 5.9385 18.3633 6.32714C18.3633 6.71577 18.6778 7.03026 19.0664 7.03026H20.4726C20.8613 7.03026 21.1757 6.71577 21.1757 6.32714C21.1757 5.9385 20.8613 5.62402 20.4726 5.62402Z" fill="#16447C"/>
<path d="M19.5596 1.61125C19.2849 1.33661 18.84 1.33661 18.5653 1.61125L17.1591 3.01748C16.8845 3.29212 16.8845 3.7371 17.1591 4.01174C17.4337 4.28637 17.8787 4.28642 18.1534 4.01174L19.5596 2.6055C19.8342 2.33087 19.8342 1.88589 19.5596 1.61125Z" fill="#16447C"/>
</svg>
