<svg width="17" height="23" viewBox="0 0 17 23" fill="none" xmlns="http://www.w3.org/2000/svg">
<path d="M11.1247 0H5.56222C5.12335 0 4.76758 0.355774 4.76758 0.794643V3.17857C4.76758 3.61744 5.12335 3.97322 5.56222 3.97322H11.1247C11.5636 3.97322 11.9194 3.61744 11.9194 3.17857V0.794643C11.9194 0.355774 11.5636 0 11.1247 0Z" fill="#16447C"/>
<path d="M8.34292 19.8662C7.85014 19.8657 7.36938 20.0183 6.96719 20.3031C6.565 20.5878 6.26127 20.9905 6.09805 21.4555C6.00536 21.7101 5.95829 21.9791 5.95899 22.2501H10.7269C10.7276 21.9791 10.6805 21.7101 10.5878 21.4555C10.4246 20.9905 10.1208 20.5878 9.71865 20.3031C9.31646 20.0183 8.8357 19.8657 8.34292 19.8662Z" fill="#16447C"/>
<path d="M12.5903 20.7681C12.4333 20.3327 12.1578 19.9634 12.3996 19.5205L12.5823 19.1947L11.4142 18.0187C11.2593 18.1452 11.0734 18.2281 10.8757 18.2588C10.6781 18.2895 10.4758 18.267 10.2898 18.1935C9.92464 18.024 9.37312 17.907 9.27661 17.4306L9.17729 17.0969L7.52046 17.085C7.41752 17.4604 7.28389 17.8834 6.85294 18.0067C6.4255 18.1511 6.03647 18.4447 5.60535 18.1895L5.28749 18.0147L4.11142 19.1828C4.23831 19.3368 4.32149 19.522 4.35224 19.7191C4.38299 19.9162 4.36018 20.118 4.28621 20.3033C4.12082 20.6687 3.99475 21.221 3.52335 21.3164L3.18965 21.4158V21.4555L3.17773 22.2501H5.16434C5.32233 18.0386 11.3654 18.0426 11.5215 22.2502L13.5081 22.2501V21.4277C13.1349 21.3236 12.7161 21.1947 12.5903 20.7681Z" fill="#16447C"/>
<path d="M15.4955 1.58984H12.7143V3.17913C12.7143 3.38785 12.6733 3.59454 12.5934 3.78739C12.5136 3.98024 12.3965 4.15546 12.2489 4.30305C12.1013 4.45064 11.9261 4.56771 11.7333 4.64755C11.5404 4.7274 11.3337 4.76847 11.125 4.76842H5.5625C5.35378 4.76847 5.14709 4.7274 4.95424 4.64755C4.76139 4.56771 4.58617 4.45064 4.43858 4.30305C4.29099 4.15546 4.17393 3.98024 4.09408 3.78739C4.01423 3.59454 3.97316 3.38785 3.97322 3.17913V1.58984H1.19196C0.876119 1.59077 0.573474 1.71664 0.350136 1.93998C0.126799 2.16332 0.000921383 2.46596 0 2.78181V21.0586C0.000925554 21.3744 0.126804 21.6771 0.350141 21.9004C0.573477 22.1238 0.876121 22.2496 1.19196 22.2506H2.38393V21.4281C2.38346 21.2535 2.4398 21.0835 2.54445 20.9437C2.64909 20.804 2.79636 20.702 2.96402 20.6533L3.30572 20.55C3.31578 20.5487 3.32512 20.5441 3.3323 20.5369C3.33947 20.5297 3.3441 20.5204 3.34545 20.5103C3.40846 20.2779 3.53398 20.0965 3.58389 19.8944L3.41299 19.5845C3.32811 19.4297 3.29578 19.2514 3.32085 19.0766C3.34593 18.9018 3.42706 18.7398 3.55205 18.6151L4.70826 17.4549C4.83231 17.3315 4.99282 17.2513 5.16601 17.2262C5.33919 17.2012 5.51584 17.2326 5.66978 17.3158L5.98764 17.4907C5.99475 17.4933 6.00237 17.4944 6.00994 17.4937C6.01751 17.493 6.02482 17.4906 6.03134 17.4867C6.2031 17.3845 6.44507 17.3276 6.63927 17.2245L6.74652 16.8669C6.79612 16.7001 6.8984 16.5538 7.03806 16.4499C7.17772 16.3461 7.34726 16.2902 7.5213 16.2907H9.16621C9.3408 16.2903 9.51081 16.3466 9.65058 16.4513C9.79034 16.5559 9.89227 16.7032 9.94099 16.8708L10.0443 17.2125C10.2229 17.3374 10.4867 17.3763 10.6522 17.4867C10.6669 17.4943 10.684 17.4957 10.6998 17.4907L11.0177 17.3158C11.1718 17.2334 11.3483 17.2025 11.5213 17.2275C11.6943 17.2525 11.8547 17.3322 11.9792 17.4549L13.1394 18.619C13.2624 18.7425 13.3424 18.9023 13.3674 19.0748C13.3925 19.2473 13.3613 19.4232 13.2785 19.5766L13.0997 19.8984C13.1527 20.082 13.2581 20.2531 13.342 20.5023C13.35 20.5302 13.3619 20.5461 13.3738 20.55L13.7274 20.6533C13.8943 20.7029 14.0405 20.8052 14.1444 20.9449C14.2482 21.0845 14.3041 21.2541 14.3036 21.4281V22.2506H15.4955C15.8114 22.2496 16.114 22.1238 16.3374 21.9004C16.5607 21.6771 16.6866 21.3744 16.6875 21.0586V2.78181C16.6866 2.46596 16.5607 2.16332 16.3374 1.93998C16.114 1.71664 15.8114 1.59077 15.4955 1.58984ZM6.24192 13.3943L4.65264 14.9836C4.57719 15.0572 4.47595 15.0984 4.37054 15.0984C4.26512 15.0984 4.16389 15.0572 4.08844 14.9836L3.2938 14.1889C3.21948 14.114 3.17788 14.0127 3.1781 13.9071C3.17831 13.8016 3.22033 13.7005 3.29494 13.6259C3.36956 13.5512 3.47071 13.5092 3.57623 13.509C3.68176 13.5088 3.78307 13.5504 3.85799 13.6247L4.37054 14.1412L5.67773 12.8301C5.75306 12.7578 5.85372 12.718 5.9581 12.719C6.06248 12.7201 6.16229 12.7621 6.2361 12.8359C6.30991 12.9097 6.35186 13.0095 6.35295 13.1139C6.35404 13.2183 6.31418 13.3189 6.24192 13.3943ZM6.24192 10.2157L4.65264 11.805C4.57719 11.8786 4.47595 11.9198 4.37054 11.9198C4.26512 11.9198 4.16389 11.8786 4.08844 11.805L3.2938 11.0103C3.2565 10.9733 3.22688 10.9294 3.20663 10.8809C3.18638 10.8324 3.1759 10.7804 3.17579 10.7279C3.17569 10.6754 3.18595 10.6233 3.206 10.5748C3.22606 10.5262 3.2555 10.4821 3.29264 10.445C3.32978 10.4078 3.3739 10.3784 3.42245 10.3583C3.471 10.3383 3.52303 10.328 3.57556 10.3281C3.62808 10.3282 3.68007 10.3387 3.72854 10.359C3.77701 10.3792 3.821 10.4088 3.85799 10.4461L4.37054 10.9627L5.67773 9.6515C5.75306 9.57924 5.85372 9.53938 5.9581 9.54047C6.06248 9.54156 6.16229 9.58351 6.2361 9.65732C6.30991 9.73113 6.35186 9.83094 6.35295 9.93532C6.35404 10.0397 6.31418 10.1404 6.24192 10.2157ZM6.24192 7.03712L4.65264 8.62641C4.57719 8.70003 4.47595 8.74124 4.37054 8.74124C4.26512 8.74124 4.16389 8.70003 4.08844 8.62641L3.2938 7.83176C3.2565 7.79477 3.22688 7.75078 3.20663 7.70231C3.18638 7.65385 3.1759 7.60186 3.17579 7.54933C3.17569 7.4968 3.18595 7.44477 3.206 7.39622C3.22606 7.34767 3.2555 7.30356 3.29264 7.26641C3.32978 7.22927 3.3739 7.19983 3.42245 7.17978C3.471 7.15973 3.52303 7.14946 3.57556 7.14957C3.62808 7.14967 3.68007 7.16015 3.72854 7.1804C3.77701 7.20065 3.821 7.23027 3.85799 7.26757L4.37054 7.78409L5.67773 6.47293C5.75306 6.40067 5.85372 6.36081 5.9581 6.3619C6.06248 6.36298 6.16229 6.40493 6.2361 6.47875C6.30991 6.55256 6.35186 6.65236 6.35295 6.75675C6.35404 6.86113 6.31418 6.96178 6.24192 7.03712ZM13.1116 14.3041H8.34375C8.23838 14.3041 8.13732 14.2623 8.0628 14.1878C7.98829 14.1132 7.94643 14.0122 7.94643 13.9068C7.94643 13.8014 7.98829 13.7004 8.0628 13.6259C8.13732 13.5514 8.23838 13.5095 8.34375 13.5095H13.1116C13.2159 13.5111 13.3154 13.5537 13.3886 13.628C13.4618 13.7023 13.5028 13.8025 13.5028 13.9068C13.5028 14.0111 13.4618 14.1113 13.3886 14.1856C13.3154 14.2599 13.2159 14.3025 13.1116 14.3041ZM13.1116 11.1256H8.34375C8.23838 11.1256 8.13732 11.0837 8.0628 11.0092C7.98829 10.9347 7.94643 10.8336 7.94643 10.7282C7.94643 10.6229 7.98829 10.5218 8.0628 10.4473C8.13732 10.3728 8.23838 10.3309 8.34375 10.3309H13.1116C13.2159 10.3325 13.3154 10.3751 13.3886 10.4494C13.4618 10.5238 13.5028 10.6239 13.5028 10.7282C13.5028 10.8326 13.4618 10.9327 13.3886 11.007C13.3154 11.0814 13.2159 11.1239 13.1116 11.1256ZM13.1116 7.94699H8.34375C8.23838 7.94699 8.13732 7.90513 8.0628 7.83062C7.98829 7.7561 7.94643 7.65504 7.94643 7.54967C7.94643 7.44429 7.98829 7.34323 8.0628 7.26872C8.13732 7.19421 8.23838 7.15235 8.34375 7.15235H13.1116C13.2159 7.15396 13.3154 7.19653 13.3886 7.27087C13.4618 7.34521 13.5028 7.44534 13.5028 7.54967C13.5028 7.65399 13.4618 7.75413 13.3886 7.82846C13.3154 7.9028 13.2159 7.94537 13.1116 7.94699Z" fill="#16447C"/>
</svg>
