<svg width="19" height="19" viewBox="0 0 19 19" fill="none" xmlns="http://www.w3.org/2000/svg">
<path d="M18.2006 17.6513H17.5781V5.5664H18.1274C18.3269 5.5664 18.5109 5.45802 18.6081 5.28315C18.7045 5.10886 18.6992 4.89543 18.593 4.72583L15.8464 0.240669C15.6458 -0.0802229 15.1159 -0.0802229 14.9152 0.240669L12.1686 4.72583C12.0624 4.89543 12.057 5.10886 12.1536 5.28315C12.2506 5.45802 12.4347 5.5664 12.6343 5.5664H13.1836V17.6513H12.0849V8.31297C12.0849 8.00948 11.8391 7.76366 11.5356 7.76366H8.23973C7.93612 7.76366 7.69042 8.00948 7.69042 8.31297V17.6513H6.59178V11.6089C6.59178 11.3054 6.34597 11.0595 6.04247 11.0595H2.74658C2.44297 11.0595 2.19726 11.3054 2.19726 11.6089V17.6513H0.549315C0.245704 17.6513 0 17.8972 0 18.2006C0 18.5043 0.245704 18.75 0.549315 18.75H18.2006C18.5041 18.75 18.75 18.5043 18.75 18.2006C18.75 17.8972 18.5041 17.6513 18.2006 17.6513Z" fill="#16447C"/>
<path d="M1.64795 4.46776C1.95099 4.46776 2.19726 4.71404 2.19726 5.01708C2.19726 5.32023 1.95099 5.5664 1.64795 5.5664C1.45202 5.5664 1.26972 5.46134 1.17153 5.29117C1.02024 5.02887 0.683898 4.9372 0.421142 5.09112C0.158729 5.24299 0.0686644 5.57876 0.220985 5.84163C0.418624 6.1838 0.736083 6.42791 1.09863 6.5578V7.17028C1.09863 7.47401 1.34433 7.7196 1.64795 7.7196C1.95144 7.7196 2.19726 7.47401 2.19726 7.17028V6.56375C2.83527 6.33635 3.29589 5.73233 3.29589 5.01708C3.29589 4.10842 2.55661 3.36913 1.64795 3.36913C1.34479 3.36913 1.09863 3.12297 1.09863 2.81982C1.09863 2.51678 1.34479 2.2705 1.64795 2.2705C1.84375 2.2705 2.02617 2.37567 2.12425 2.54573C2.27508 2.80757 2.60982 2.89764 2.87475 2.74589C3.13705 2.59403 3.22723 2.25826 3.07479 1.99527C2.87715 1.6531 2.5597 1.40899 2.19726 1.27922V0.549315C2.19726 0.245819 1.95144 0 1.64795 0C1.34433 0 1.09863 0.245819 1.09863 0.549315V1.27304C0.460624 1.50066 0 2.10456 0 2.81982C0 3.72848 0.739287 4.46776 1.64795 4.46776Z" fill="#16447C"/>
</svg>
