<svg width="19" height="19" viewBox="0 0 19 19" fill="none" xmlns="http://www.w3.org/2000/svg">
<path d="M11.2507 8.25287C11.7041 8.25287 12.0717 7.88529 12.0717 7.43185C12.0717 6.97842 11.7041 6.61084 11.2507 6.61084C10.7973 6.61084 10.4297 6.97842 10.4297 7.43185C10.4297 7.88529 10.7973 8.25287 11.2507 8.25287Z" fill="#16447C"/>
<path d="M8.33248 9.18972L8.08789 9.4343C8.27851 9.62427 8.55627 9.90119 8.66749 10.0124C8.80049 10.1454 9.06665 10.41 9.25012 10.5923C9.34141 10.4998 9.44278 10.3969 9.49963 10.338C9.78618 10.0412 9.62829 9.62223 9.34466 9.33859C9.06406 9.05795 8.65074 8.87145 8.33248 9.18972Z" fill="#16447C"/>
<path d="M5.78 13.7226C6.23343 13.7226 6.60101 13.355 6.60101 12.9016C6.60101 12.4481 6.23343 12.0806 5.78 12.0806C5.32656 12.0806 4.95898 12.4481 4.95898 12.9016C4.95898 13.355 5.32656 13.7226 5.78 13.7226Z" fill="#16447C"/>
<path d="M13.7176 0.320633L0.320633 13.7176C-0.106878 14.1451 -0.106878 14.8383 0.320633 15.2657L3.41688 18.362C3.84439 18.7895 4.5375 18.7895 4.96498 18.362L18.362 4.96498C18.7895 4.53747 18.7895 3.84435 18.362 3.41688L15.2657 0.320633C14.8383 -0.106878 14.1451 -0.106878 13.7176 0.320633ZM5.08361 14.5441C5.31925 14.8821 5.25346 15.3643 4.92721 15.6906C4.66591 15.9519 4.30109 16.0976 3.95126 16.0804C3.80031 16.073 3.68394 15.9446 3.69139 15.7936C3.69879 15.6427 3.82716 15.5262 3.97816 15.5337C4.17622 15.5434 4.38629 15.4574 4.54017 15.3035C4.68977 15.1539 4.70565 14.959 4.6346 14.8571C4.54006 14.7215 4.31375 14.8064 4.22085 14.8493C3.89219 15.0008 3.58411 15.1191 3.57115 15.1241C3.55769 15.1292 3.54382 15.1333 3.5297 15.1363C3.26004 15.1931 2.98929 15.0906 2.82308 14.8687C2.64596 14.6322 2.62878 14.3126 2.77809 14.0344C3.07355 13.4842 3.7089 13.4231 3.73576 13.4207C3.88635 13.4077 4.01899 13.5192 4.03202 13.6698C4.04501 13.8197 3.93448 13.9519 3.78484 13.9659C3.77462 13.967 3.41272 14.0096 3.2603 14.2934C3.19086 14.4227 3.23779 14.5094 3.26121 14.5406C3.27807 14.5631 3.32383 14.6117 3.39983 14.6034C3.47796 14.5729 3.73138 14.4722 3.99169 14.3522C4.52634 14.1057 4.9063 14.2897 5.08361 14.5441ZM6.74822 13.8695C6.21471 14.4031 5.34659 14.4031 4.81307 13.8695C4.27956 13.336 4.27956 12.4679 4.81307 11.9344C5.34659 11.4009 6.21471 11.4009 6.74822 11.9344C7.28173 12.4679 7.28173 13.336 6.74822 13.8695ZM8.74777 11.8674C8.57291 12.0442 8.45308 12.1649 8.37018 12.2478C8.19762 12.4203 8.18521 12.4291 8.16908 12.4405C8.06027 12.5174 7.91183 12.5048 7.81754 12.4105L6.27075 10.8637C6.16388 10.7568 6.16388 10.5836 6.27075 10.4767C6.37763 10.3698 6.55092 10.3698 6.6578 10.4767L8.01236 11.8312C8.11263 11.7307 8.23995 11.6025 8.35857 11.4825C8.35894 11.4821 8.3593 11.4817 8.35967 11.4814C8.46604 11.375 8.63848 11.3744 8.74558 11.4803C8.85308 11.5866 8.85403 11.7599 8.74777 11.8674ZM9.89288 10.718C9.77017 10.8451 9.45873 11.159 9.44552 11.1723C9.44527 11.1725 9.44505 11.1728 9.44479 11.173C9.39371 11.2241 9.32452 11.2529 9.25227 11.2532C9.1797 11.2534 9.10997 11.2249 9.05844 11.1737C9.05844 11.1737 8.49519 10.6145 8.27998 10.3992C8.10344 10.2227 7.50687 9.62837 7.50687 9.62833C7.45539 9.57707 7.42645 9.50737 7.42634 9.43472C7.42627 9.36203 7.45513 9.2923 7.50651 9.24093L7.94497 8.80247C8.43465 8.31278 9.15248 8.37262 9.73124 8.95135C10.2818 9.50194 10.3497 10.2449 9.89288 10.718ZM12.2182 8.39952C11.6847 8.93303 10.8166 8.93303 10.2831 8.39952C9.74955 7.866 9.74955 6.99788 10.2831 6.46437C10.8166 5.93086 11.6847 5.93086 12.2182 6.46437C12.7518 6.99792 12.7518 7.866 12.2182 8.39952ZM14.2331 5.02975C14.4145 5.21117 14.5965 5.53133 14.4332 6.02624C14.3813 6.18314 14.293 6.32483 14.1704 6.44736C14.1701 6.44773 14.1697 6.44813 14.1693 6.44853C14.0269 6.59055 13.8582 6.68382 13.6679 6.72574C13.3067 6.80533 13.0051 6.72724 12.7715 6.4936L11.7062 5.42832C11.5993 5.32144 11.5993 5.14819 11.7062 5.04128C11.8131 4.9344 11.9864 4.9344 12.0932 5.04128L13.1585 6.10655C13.2426 6.19062 13.3414 6.23718 13.5502 6.19117C13.6383 6.17176 13.7144 6.12918 13.7828 6.06094C13.783 6.06072 13.7832 6.0605 13.7834 6.06028C13.8458 5.99792 13.8883 5.93067 13.9134 5.85463C13.9949 5.6077 13.9202 5.4909 13.8461 5.41676L12.7819 4.35261C12.6751 4.24573 12.6751 4.07248 12.7819 3.96557C12.8888 3.85869 13.0621 3.85869 13.169 3.96557L14.2331 5.02975ZM14.6952 2.82629L14.4595 3.06198L15.8141 4.41658C15.921 4.52346 15.921 4.69671 15.8141 4.80362C15.7073 4.9105 15.534 4.9105 15.4271 4.80362L14.0725 3.44902L13.8402 3.68128C13.7334 3.78816 13.5601 3.78816 13.4532 3.68128C13.3463 3.5744 13.3463 3.40115 13.4532 3.29423L14.3081 2.43925C14.415 2.33237 14.5883 2.33237 14.6952 2.43925C14.8021 2.54616 14.8021 2.71942 14.6952 2.82629Z" fill="#16447C"/>
<path d="M8.81731 3.67285C6.09629 3.92262 3.92364 6.09532 3.67383 8.81634L8.81731 3.67285Z" fill="#16447C"/>
<path d="M9.86719 15.0087C12.5882 14.7589 14.7609 12.5863 15.0107 9.86523L9.86719 15.0087Z" fill="#16447C"/>
<path d="M2.57846 9.91171C2.56273 9.72361 2.55426 9.53343 2.55426 9.34131C2.55426 5.59891 5.59891 2.55426 9.34131 2.55426C9.53343 2.55426 9.72357 2.56273 9.91171 2.57846L12.0814 0.408755C11.2148 0.143258 10.2949 0 9.34131 0C4.18224 0 0 4.18224 0 9.34131C0 10.2949 0.143258 11.2149 0.408755 12.0814L2.57846 9.91171Z" fill="#16447C"/>
<path d="M16.1045 8.77126C16.1202 8.95937 16.1287 9.14955 16.1287 9.34167C16.1287 13.0841 13.0841 16.1287 9.34167 16.1287C9.14955 16.1287 8.9594 16.1202 8.77126 16.1045L6.60156 18.2742C7.46811 18.5397 8.38812 18.683 9.34167 18.683C14.5007 18.683 18.683 14.5007 18.683 9.34167C18.683 8.38812 18.5397 7.46811 18.2742 6.60156L16.1045 8.77126Z" fill="#16447C"/>
</svg>
