<svg width="21" height="22" viewBox="0 0 21 22" fill="none" xmlns="http://www.w3.org/2000/svg">
<path d="M18.1653 3.77997L17.2203 2.83499V0L14.2803 3.04501L14.0704 5.46L11.0254 8.505C10.8153 8.505 10.7104 8.505 10.5004 8.505C9.34537 8.505 8.40039 9.44999 8.40039 10.605C8.40039 11.76 9.34537 12.705 10.5004 12.705C11.6554 12.705 12.6004 11.76 12.6004 10.605C12.6004 10.395 12.6004 10.29 12.4954 10.08L15.5404 7.035L17.9554 6.82498L21.0004 3.77997H18.1653Z" fill="#16447C"/>
<path d="M16.1711 7.97967H16.0662L14.5961 9.55467C14.7011 9.86967 14.7011 10.2897 14.7011 10.6047C14.7011 12.9147 12.8111 14.8047 10.5011 14.8047C8.19112 14.8047 6.30111 12.9147 6.30111 10.6047C6.30111 8.29468 8.19116 6.40467 10.5012 6.40467C10.9212 6.40467 11.2362 6.50966 11.5512 6.50966L13.1262 4.93466V4.82967C12.2862 4.51467 11.4462 4.30469 10.5012 4.30469C7.03616 4.30469 4.20117 7.13967 4.20117 10.6047C4.20117 14.0697 7.03616 16.9046 10.5012 16.9046C13.9662 16.9046 16.8012 14.0696 16.8012 10.6046C16.8012 9.65966 16.5911 8.81966 16.1711 7.97967Z" fill="#16447C"/>
<path d="M20.0549 6.30047L18.4799 7.77048C18.69 8.61047 18.8999 9.5555 18.8999 10.6055C18.8999 15.2255 15.12 19.0054 10.5 19.0054C5.87995 19.0054 2.09998 15.2254 2.09998 10.6055C2.09998 5.9855 5.87995 2.20549 10.5 2.20549C11.4449 2.20549 12.39 2.41551 13.3349 2.73048V2.62549L14.9099 1.05049C13.545 0.420476 12.075 0.105469 10.5 0.105469C4.72495 0.105469 0 4.83046 0 10.6055C0 16.3805 4.72495 21.1054 10.5 21.1054C16.275 21.1054 20.9999 16.3804 20.9999 10.6055C20.9999 9.03047 20.6849 7.56046 20.0549 6.30047Z" fill="#16447C"/>
</svg>
